<svg width="42" height="42" viewBox="0 0 42 42" fill="none" xmlns="http://www.w3.org/2000/svg">
<path d="M35.7103 5.38525H6.2512C5.54274 5.38525 4.97037 5.95763 4.97037 6.66609V36.1252C4.97037 36.8337 5.54274 37.406 6.2512 37.406H35.7103C36.4188 37.406 36.9911 36.8337 36.9911 36.1252V6.66609C36.9911 5.95763 36.4188 5.38525 35.7103 5.38525ZM32.0119 14.7313H29.4543C27.449 14.7313 27.0607 15.6839 27.0607 17.0848V20.1708H31.8478L31.2234 25.002H27.0607V37.406H22.0695V25.006H17.8948V20.1708H22.0695V16.6085C22.0695 12.4739 24.5951 10.2204 28.2855 10.2204C30.0546 10.2204 31.5716 10.3525 32.0159 10.4125V14.7313H32.0119Z" fill="#2091F9"/>
</svg>
