<svg width="42" height="42" viewBox="0 0 42 42" fill="none" xmlns="http://www.w3.org/2000/svg">
<path d="M35.2505 4.98961H5.79139C5.08293 4.98961 4.51056 5.56198 4.51056 6.27044V35.7296C4.51056 36.438 5.08293 37.0104 5.79139 37.0104H35.2505C35.959 37.0104 36.5313 36.438 36.5313 35.7296V6.27044C36.5313 5.56198 35.959 4.98961 35.2505 4.98961ZM31.5521 14.3357H28.9944C26.9891 14.3357 26.6009 15.2883 26.6009 16.6892V19.7752H31.388L30.7636 24.6063H26.6009V37.0104H21.6097V24.6103H17.4349V19.7752H21.6097V16.2129C21.6097 12.0782 24.1353 9.82475 27.8257 9.82475C29.5948 9.82475 31.1118 9.95683 31.5561 10.0169V14.3357H31.5521Z" fill="white"/>
</svg>
