<svg width="42" height="42" viewBox="0 0 42 42" fill="none" xmlns="http://www.w3.org/2000/svg">
<path d="M35.6981 5.38525H6.23899C5.53053 5.38525 4.95816 5.95763 4.95816 6.66609V36.1252C4.95816 36.8337 5.53053 37.406 6.23899 37.406H35.6981C36.4066 37.406 36.9789 36.8337 36.9789 36.1252V6.66609C36.9789 5.95763 36.4066 5.38525 35.6981 5.38525ZM14.4563 32.671H9.70524V17.389H14.4563V32.671ZM12.0828 15.2997C11.5381 15.2997 11.0057 15.1382 10.5529 14.8356C10.1 14.533 9.74704 14.1029 9.53862 13.5997C9.33019 13.0965 9.27565 12.5428 9.38191 12.0087C9.48817 11.4745 9.75044 10.9838 10.1356 10.5987C10.5207 10.2136 11.0114 9.95128 11.5455 9.84503C12.0797 9.73877 12.6334 9.7933 13.1366 10.0017C13.6398 10.2102 14.0699 10.5631 14.3725 11.016C14.6751 11.4688 14.8366 12.0013 14.8366 12.5459C14.8326 14.0669 13.5998 15.2997 12.0828 15.2997ZM32.2439 32.671H27.4968V25.2381C27.4968 23.465 27.4648 21.1875 25.0272 21.1875C22.5576 21.1875 22.1773 23.1168 22.1773 25.1101V32.671H17.4343V17.389H21.9892V19.4784H22.0533C22.6857 18.2776 24.2347 17.0088 26.5482 17.0088C31.3593 17.0088 32.2439 20.1748 32.2439 24.2895V32.671Z" fill="#2091F9"/>
</svg>
