<svg width="41" height="42" viewBox="0 0 41 42" fill="none" xmlns="http://www.w3.org/2000/svg">
<path d="M35.2384 4.98961H5.77924C5.07078 4.98961 4.49841 5.56198 4.49841 6.27044V35.7296C4.49841 36.438 5.07078 37.0104 5.77924 37.0104H35.2384C35.9468 37.0104 36.5192 36.438 36.5192 35.7296V6.27044C36.5192 5.56198 35.9468 4.98961 35.2384 4.98961ZM13.9966 32.2753H9.24549V16.9934H13.9966V32.2753ZM11.623 14.904C11.0784 14.904 10.546 14.7425 10.0931 14.4399C9.64026 14.1374 9.2873 13.7073 9.07887 13.2041C8.87044 12.7009 8.81591 12.1472 8.92216 11.613C9.02842 11.0788 9.29069 10.5882 9.67582 10.203C10.0609 9.81791 10.5516 9.55564 11.0858 9.44938C11.62 9.34313 12.1737 9.39766 12.6769 9.60609C13.1801 9.81452 13.6101 10.1675 13.9127 10.6203C14.2153 11.0732 14.3768 11.6056 14.3768 12.1503C14.3728 13.6712 13.14 14.904 11.623 14.904ZM31.7841 32.2753H27.037V24.8425C27.037 23.0693 27.005 20.7919 24.5674 20.7919C22.0978 20.7919 21.7176 22.7211 21.7176 24.7144V32.2753H16.9745V16.9934H21.5295V19.0828H21.5935C22.2259 17.882 23.7749 16.6132 26.0884 16.6132C30.8995 16.6132 31.7841 19.7792 31.7841 23.8939V32.2753Z" fill="white"/>
</svg>
