<svg width="42" height="42" viewBox="0 0 42 42" fill="none" xmlns="http://www.w3.org/2000/svg">
<path d="M37.6449 11.0808C36.4201 11.6091 35.0873 11.9894 33.7144 12.1375C35.1398 11.2907 36.2072 9.95287 36.7163 8.37505C35.3788 9.17072 33.9135 9.72866 32.3855 10.0241C31.7469 9.34138 30.9745 8.79748 30.1165 8.42631C29.2584 8.05514 28.3332 7.86465 27.3983 7.86672C23.6158 7.86672 20.5739 10.9327 20.5739 14.6951C20.5739 15.2235 20.6379 15.7518 20.742 16.2602C15.0783 15.964 10.027 13.2582 6.66884 9.11553C6.05694 10.1607 5.73629 11.3507 5.74023 12.5618C5.74023 14.9313 6.94502 17.0207 8.78221 18.2495C7.69952 18.2068 6.64219 17.9092 5.69621 17.3809V17.4649C5.69621 20.7831 8.04173 23.5329 11.1678 24.1653C10.5808 24.3178 9.97701 24.3957 9.37059 24.3974C8.9263 24.3974 8.50603 24.3534 8.08175 24.2934C8.94631 26.9991 11.4639 28.9644 14.4619 29.0284C12.1164 30.8656 9.17846 31.9463 5.98839 31.9463C5.41602 31.9463 4.88768 31.9263 4.33932 31.8623C7.36529 33.8035 10.9556 34.9243 14.8221 34.9243C27.3743 34.9243 34.2427 24.5255 34.2427 15.4997C34.2427 15.2035 34.2427 14.9073 34.2227 14.6111C35.5516 13.6385 36.7163 12.4337 37.6449 11.0808Z" fill="#2091F9"/>
</svg>
