<svg width="42" height="42" viewBox="0 0 42 42" fill="none" xmlns="http://www.w3.org/2000/svg">
<path d="M37.1852 10.6853C35.9604 11.2137 34.6275 11.5939 33.2546 11.742C34.68 10.8952 35.7474 9.55741 36.2566 7.97959C34.919 8.77526 33.4538 9.3332 31.9258 9.62866C31.2871 8.94592 30.5147 8.40202 29.6567 8.03085C28.7987 7.65968 27.8734 7.4692 26.9385 7.47126C23.1561 7.47126 20.1141 10.5373 20.1141 14.2997C20.1141 14.828 20.1782 15.3564 20.2822 15.8647C14.6185 15.5685 9.56727 12.8628 6.20909 8.72007C5.59719 9.76521 5.27654 10.9552 5.28049 12.1663C5.28049 14.5358 6.48527 16.6252 8.32246 17.854C7.23978 17.8114 6.18244 17.5138 5.23646 16.9854V17.0695C5.23646 20.3876 7.58198 23.1374 10.708 23.7698C10.1211 23.9223 9.51726 24.0003 8.91084 24.002C8.46655 24.002 8.04628 23.958 7.62201 23.8979C8.48657 26.6037 11.0042 28.569 14.0021 28.633C11.6566 30.4702 8.71872 31.5509 5.52865 31.5509C4.95628 31.5509 4.42793 31.5309 3.87958 31.4668C6.90554 33.4081 10.4959 34.5288 14.3624 34.5288C26.9145 34.5288 33.783 24.1301 33.783 15.1042C33.783 14.808 33.783 14.5118 33.763 14.2156C35.0918 13.243 36.2566 12.0382 37.1852 10.6853Z" fill="white"/>
</svg>
