<svg width="62" height="61" viewBox="0 0 62 61" fill="none" xmlns="http://www.w3.org/2000/svg">
<path d="M53.1379 11.7679L49.7321 8.36209C48.7916 7.37084 47.1396 7.37084 46.1483 8.36209L23.375 31.1354L30.3646 38.125L53.1379 15.3517C54.1291 14.3604 54.1291 12.7083 53.1379 11.7679ZM18.2916 35.5833C16.2694 35.5833 14.3299 36.3867 12.9 37.8167C11.47 39.2466 10.6666 41.1861 10.6666 43.2083C10.6666 46.5379 7.71831 48.2917 5.58331 48.2917C7.92165 51.3925 11.9375 53.375 15.75 53.375C18.4463 53.375 21.0323 52.3039 22.9389 50.3973C24.8455 48.4906 25.9166 45.9047 25.9166 43.2083C25.9166 41.1861 25.1133 39.2466 23.6833 37.8167C22.2534 36.3867 20.3139 35.5833 18.2916 35.5833Z" fill="#2091F9"/>
</svg>
